<?xml version="1.0" standalone="no"?>
<!DOCTYPE svg PUBLIC "-//W3C//DTD SVG 20010904//EN"
 "http://www.w3.org/TR/2001/REC-SVG-20010904/DTD/svg10.dtd">
<svg version="1.0" xmlns="http://www.w3.org/2000/svg"
 width="700.000000pt" height="700.000000pt" viewBox="0 0 700.000000 700.000000"
 preserveAspectRatio="xMidYMid meet">
<metadata>
Created by potrace 1.14, written by Peter Selinger 2001-2017
</metadata>
<g transform="translate(0.000000,700.000000) scale(0.100000,-0.100000)"
fill="#000000" stroke="none">
<path d="M1449 6996 c-2 -2 -30 -6 -61 -10 -134 -14 -328 -69 -468 -134 -269
-124 -503 -327 -666 -577 -54 -83 -144 -263 -144 -287 0 -8 -4 -18 -9 -23 -20
-23 -76 -246 -88 -353 -5 -37 -8 -998 -8 -2137 l0 -2070 23 -112 c68 -334 222
-620 456 -846 150 -144 275 -226 506 -330 72 -32 231 -78 320 -92 25 -4 54
-10 65 -14 11 -3 954 -7 2095 -8 2172 -2 2111 -3 2300 39 30 6 57 12 60 13 27
5 189 64 246 90 334 152 612 428 771 765 59 124 80 188 120 360 l27 115 3
2065 c2 2240 4 2168 -52 2375 -146 543 -575 974 -1115 1119 -52 14 -113 28
-135 31 -23 3 -52 9 -65 12 -25 8 -4173 16 -4181 9z"/>
</g>
</svg>
