<svg width="23" height="23" viewBox="0 0 23 23" fill="none" xmlns="http://www.w3.org/2000/svg">
<g id="maki:arrow" clip-path="url(#clip0_9_115)">
<path id="Vector" d="M8.27532 7.33546C8.26883 7.07038 8.36789 6.81357 8.55072 6.62151C8.73354 6.42945 8.98516 6.31787 9.25025 6.3113L15.6123 6.15462C15.8774 6.14813 16.1342 6.24719 16.3262 6.43002C16.5183 6.61285 16.6299 6.86447 16.6364 7.12955L16.7931 13.4916C16.795 13.7538 16.6939 14.0062 16.5114 14.1946C16.329 14.3829 16.0799 14.4921 15.8178 14.4985C15.5556 14.505 15.3015 14.4082 15.11 14.2291C14.9185 14.05 14.805 13.8028 14.794 13.5408L14.6375 9.6544L8.0874 16.5353C7.90454 16.7274 7.65285 16.839 7.38772 16.8455C7.12258 16.852 6.86571 16.7529 6.67361 16.5701C6.48152 16.3872 6.36993 16.1355 6.3634 15.8704C6.35687 15.6053 6.45593 15.3484 6.6388 15.1563L13.1889 8.27544L9.29948 8.31039C9.0344 8.31688 8.77759 8.21782 8.58553 8.035C8.39347 7.85217 8.28189 7.60055 8.27532 7.33546Z" fill="#656565"/>
</g>
<defs>
<clipPath id="clip0_9_115">
<rect width="15" height="15" fill="white" transform="translate(0.896606 11.7611) rotate(-46.4108)"/>
</clipPath>
</defs>
</svg>
