<svg width="22" height="22" viewBox="0 0 22 22" fill="none" xmlns="http://www.w3.org/2000/svg">
<path d="M11 1.83337C9.79626 1.83337 8.60426 2.07048 7.49211 2.53114C6.37996 2.99181 5.36943 3.66702 4.51823 4.51823C2.79915 6.23731 1.83337 8.56889 1.83337 11C1.83337 15.0517 4.46421 18.4892 8.10337 19.7084C8.56171 19.7817 8.70837 19.4975 8.70837 19.25V17.7009C6.16921 18.2509 5.62837 16.4725 5.62837 16.4725C5.20671 15.4092 4.61087 15.125 4.61087 15.125C3.77671 14.5567 4.67504 14.575 4.67504 14.575C5.59171 14.6392 6.07754 15.5192 6.07754 15.5192C6.87504 16.9125 8.22254 16.5 8.74504 16.28C8.82754 15.6842 9.06587 15.2809 9.32254 15.0517C7.28754 14.8225 5.15171 14.0342 5.15171 10.5417C5.15171 9.52421 5.50004 8.70837 6.09587 8.05754C6.00421 7.82837 5.68337 6.87504 6.18754 5.63754C6.18754 5.63754 6.95754 5.39004 8.70837 6.57254C9.43254 6.37087 10.2209 6.27004 11 6.27004C11.7792 6.27004 12.5675 6.37087 13.2917 6.57254C15.0425 5.39004 15.8125 5.63754 15.8125 5.63754C16.3167 6.87504 15.9959 7.82837 15.9042 8.05754C16.5 8.70837 16.8484 9.52421 16.8484 10.5417C16.8484 14.0434 14.7034 14.8134 12.6592 15.0425C12.9892 15.3267 13.2917 15.8859 13.2917 16.7384V19.25C13.2917 19.4975 13.4384 19.7909 13.9059 19.7084C17.545 18.48 20.1667 15.0517 20.1667 11C20.1667 9.79626 19.9296 8.60426 19.4689 7.49211C19.0083 6.37996 18.3331 5.36943 17.4819 4.51823C16.6306 3.66702 15.6201 2.99181 14.508 2.53114C13.3958 2.07048 12.2038 1.83337 11 1.83337Z" fill="black"/>
</svg>
