<svg width="15" height="21" viewBox="0 0 15 21" fill="none" xmlns="http://www.w3.org/2000/svg">
<path d="M11.0623 4.17175L11.1137 4.20108C10.4188 4.56775 8.43335 5.75025 8.43335 7.25542C8.43335 7.76325 8.72393 8.25275 8.99618 8.71292C9.23635 9.11808 9.46276 9.49942 9.46276 9.84775C9.46276 10.725 8.60751 11.4061 8.12443 11.7196L8.03276 11.6664C8.21518 11.4437 8.43976 11.0706 8.43976 10.6727C8.43976 10.1246 8.15835 9.68642 7.87326 9.24183C7.5781 8.78258 7.27926 8.316 7.27926 7.711C7.27926 5.61 10.1347 4.4825 11.0623 4.17175ZM7.3086 5.28275C8.45718 4.25608 9.7121 3.13408 9.7121 1.4465C9.7121 0.682917 9.39951 0.19525 9.2446 0L9.19418 0.0284167C9.23085 0.180583 9.28585 0.461083 9.28585 0.82775C9.28585 2.36408 7.98235 3.44025 6.72101 4.48342C5.5376 5.46242 4.39085 6.41025 4.39085 7.67892C4.39085 9.4985 6.18568 10.6178 6.94376 11.0908L7.00151 11.1274L7.04735 11.0999C7.00474 11.0527 6.96135 11.0063 6.91718 10.9606C6.33418 10.34 5.44868 9.39858 5.44868 7.9585C5.44868 6.94742 6.3406 6.149 7.3086 5.28275ZM6.89518 14.3651C8.51218 14.3651 9.64335 14.1332 10.1457 13.9911L10.9083 14.4311C10.1814 14.8005 8.56993 15.0819 6.89151 15.0819C4.91793 15.0819 2.7601 14.6584 2.75368 14.0938C2.7491 13.7821 3.45493 13.5749 4.21576 13.4411L4.2616 13.4677C4.2616 13.4677 4.00401 13.5602 4.00676 13.7729C4.01043 14.0937 5.30843 14.3651 6.89426 14.3651M3.65935 16.3552C3.65935 15.9821 4.42843 15.8052 4.78043 15.7346L4.82626 15.7621C4.76576 15.807 4.73276 15.8684 4.73276 15.9207C4.73276 16.1654 5.58526 16.3891 6.89243 16.3891C8.06393 16.3891 8.71476 16.2452 9.1016 16.1526L10.0091 16.6778C9.96785 16.7072 9.0741 17.2691 6.8906 17.2691C5.30385 17.2691 3.65935 16.8731 3.65935 16.3552ZM11.4776 14.7712C12.5593 14.1543 13.6418 13.4246 13.7033 12.2531C13.7436 11.484 13.0368 10.9202 12.2641 11.0706L12.3053 10.9679V10.9661C12.4997 10.9074 12.7398 10.8598 13.0084 10.8598C13.8728 10.8598 14.5356 11.3777 14.6199 12.1028C14.7904 13.5566 12.7298 14.5026 11.5757 14.828L11.4776 14.7712ZM13.288 17.5102C13.2972 18.5093 9.89818 19.1033 6.86035 19.1299C4.23776 19.1528 0.00917898 18.6578 1.23101e-05 17.6587C-0.00548769 16.9684 1.83335 16.4908 2.83251 16.3533L2.93793 16.4129C2.93793 16.4129 1.44835 16.7585 1.45293 17.3864C1.45843 18.0125 4.59251 18.5543 6.85576 18.535C10.362 18.5038 12.7353 17.9328 13.0158 17.1582L13.0653 17.1298C13.1679 17.2049 13.2853 17.3287 13.288 17.5102ZM2.62168 19.5452C3.9187 19.7525 5.23064 19.8521 6.5441 19.8431C12.2348 19.7936 13.8408 18.3948 14.0883 18.0904L14.1313 18.1161C14.0727 19.2234 11.0633 20.1438 7.35168 20.1758C5.46243 20.1923 3.74276 19.9742 2.5071 19.6121L2.62168 19.5452ZM5.00685 11.0357C4.01776 11.1118 1.89385 11.4263 1.89385 11.9854C1.89385 12.4089 3.84085 13.0057 6.89151 13.0057C9.63601 13.0057 11.3685 12.4878 11.7728 12.2907L11.1833 11.9469C10.7617 12.0615 9.1951 12.4107 6.89151 12.4107C5.53485 12.4107 3.19735 12.1605 3.19735 11.7783C3.19735 11.4354 4.65576 11.1714 5.07468 11.0953L5.10126 11.0908L5.00685 11.0357Z" fill="white"/>
</svg>
