<svg width="22" height="22" viewBox="0 0 22 22" fill="none" xmlns="http://www.w3.org/2000/svg">
<path d="M14.3348 4.18554L14.3861 4.21488C13.6913 4.58154 11.7058 5.76404 11.7058 7.26921C11.7058 7.77704 11.9964 8.26654 12.2686 8.72671C12.5088 9.13188 12.7352 9.51321 12.7352 9.86154C12.7352 10.7388 11.88 11.4199 11.3969 11.7334L11.3052 11.6802C11.4876 11.4575 11.7122 11.0844 11.7122 10.6865C11.7122 10.1384 11.4308 9.70021 11.1457 9.25563C10.8506 8.79638 10.5517 8.32979 10.5517 7.72479C10.5517 5.62379 13.4071 4.49629 14.3348 4.18554ZM10.5811 5.29654C11.7296 4.26988 12.9846 3.14788 12.9846 1.46029C12.9846 0.696711 12.672 0.209044 12.5171 0.0137939L12.4666 0.0422106C12.5033 0.194377 12.5583 0.474877 12.5583 0.841544C12.5583 2.37788 11.2548 3.45404 9.99347 4.49721C8.81006 5.47621 7.66331 6.42404 7.66331 7.69271C7.66331 9.51229 9.45814 10.6315 10.2162 11.1045L10.274 11.1412L10.3198 11.1137C10.2772 11.0665 10.2338 11.0201 10.1896 10.9744C9.60664 10.3538 8.72114 9.41238 8.72114 7.97229C8.72114 6.96121 9.61306 6.16279 10.5811 5.29654ZM10.1676 14.3789C11.7846 14.3789 12.9158 14.147 13.4181 14.0049L14.1808 14.4449C13.4539 14.8143 11.8424 15.0957 10.164 15.0957C8.19039 15.0957 6.03256 14.6722 6.02614 14.1075C6.02156 13.7959 6.72739 13.5887 7.48822 13.4549L7.53406 13.4815C7.53406 13.4815 7.27647 13.574 7.27922 13.7867C7.28289 14.1075 8.58089 14.3789 10.1667 14.3789M6.93181 16.369C6.93181 15.9959 7.70089 15.819 8.05289 15.7484L8.09872 15.7759C8.03822 15.8208 8.00522 15.8822 8.00522 15.9345C8.00522 16.1792 8.85772 16.4029 10.1649 16.4029C11.3364 16.4029 11.9872 16.259 12.3741 16.1664L13.2816 16.6916C13.2403 16.721 12.3466 17.2829 10.1631 17.2829C8.57631 17.2829 6.93181 16.8869 6.93181 16.369ZM14.7501 14.785C15.8317 14.168 16.9143 13.4384 16.9757 12.2669C17.0161 11.4978 16.3093 10.934 15.5366 11.0844L15.5778 10.9817V10.9799C15.7721 10.9212 16.0123 10.8735 16.2809 10.8735C17.1453 10.8735 17.8081 11.3915 17.8924 12.1165C18.0629 13.5704 16.0022 14.5164 14.8481 14.8418L14.7501 14.785ZM16.5605 17.524C16.5696 18.5231 13.1706 19.1171 10.1328 19.1437C7.51022 19.1666 3.28164 18.6716 3.27247 17.6725C3.26697 16.9822 5.10581 16.5046 6.10497 16.3671L6.21039 16.4267C6.21039 16.4267 4.72081 16.7723 4.72539 17.4002C4.73089 18.0263 7.86497 18.568 10.1282 18.5488C13.6345 18.5176 16.0077 17.9465 16.2882 17.172L16.3377 17.1435C16.4404 17.2187 16.5577 17.3425 16.5605 17.524ZM5.89414 19.559C7.19116 19.7663 8.50311 19.8659 9.81656 19.8569C15.5072 19.8074 17.1132 18.4085 17.3607 18.1042L17.4038 18.1299C17.3451 19.2372 14.3357 20.1575 10.6241 20.1896C8.73489 20.2061 7.01522 19.988 5.77956 19.6259L5.89414 19.559ZM8.27931 11.0495C7.29022 11.1256 5.16631 11.44 5.16631 11.9992C5.16631 12.4227 7.11331 13.0195 10.164 13.0195C12.9085 13.0195 14.641 12.5015 15.0452 12.3045L14.4558 11.9607C14.0341 12.0753 12.4676 12.4245 10.164 12.4245C8.80731 12.4245 6.46981 12.1743 6.46981 11.792C6.46981 11.4492 7.92822 11.1852 8.34714 11.1091L8.37372 11.1045L8.27931 11.0495Z" fill="black"/>
</svg>
