<svg width="22" height="22" viewBox="0 0 22 22" fill="none" xmlns="http://www.w3.org/2000/svg">
<g clip-path="url(#clip0_38_8)">
<path d="M18.3333 11.7333V11.4883C18.3333 10.4089 17.4577 9.53328 16.3783 9.53328H14.6667C14.0832 9.53328 13.5236 9.76506 13.111 10.1776C12.6984 10.5902 12.4667 11.1498 12.4667 11.7333C12.4667 12.3168 12.6984 12.8763 13.111 13.2889C13.5236 13.7015 14.0832 13.9333 14.6667 13.9333H16.1333C16.7168 13.9333 17.2764 14.1651 17.689 14.5776C18.1015 14.9902 18.3333 15.5498 18.3333 16.1333C18.3333 16.7168 18.1015 17.2763 17.689 17.6889C17.2764 18.1015 16.7168 18.3333 16.1333 18.3333H14.6667C14.0832 18.3333 13.5236 18.1015 13.111 17.6889C12.6984 17.2763 12.4667 16.7168 12.4667 16.1333M9.53333 8.79994V16.1333C9.53333 16.7168 9.30154 17.2763 8.88896 17.6889C8.47638 18.1015 7.91681 18.3333 7.33333 18.3333C6.74985 18.3333 6.19027 18.1015 5.77769 17.6889C5.36511 17.2763 5.13333 16.7168 5.13333 16.1333M0.73333 0.733276H21.2667V21.2666H0.73333V0.733276Z" stroke="white"/>
</g>
<defs>
<clipPath id="clip0_38_8">
<rect width="22" height="22" fill="white"/>
</clipPath>
</defs>
</svg>
