<svg width="52" height="12" viewBox="0 0 52 12" fill="none" xmlns="http://www.w3.org/2000/svg">
<path d="M3.672 12L0.162 0.299999H2.79L5.562 10.182H5.616L8.622 0.299999H10.188L6.426 12H3.672ZM11.7571 12V0.299999H14.2411V12H11.7571ZM17.0305 12V0.299999H24.0505V1.596H19.5145V5.448H23.5105V6.708H19.5145V10.704H24.3025V12H17.0305ZM26.47 12V0.299999H28.954V12H26.47ZM31.7434 0.299999H35.3434C36.6634 0.299999 37.6954 0.623999 38.4394 1.272C39.1834 1.908 39.5554 2.808 39.5554 3.972C39.5554 4.728 39.3694 5.388 38.9974 5.952C38.6254 6.504 38.1394 6.936 37.5394 7.248L40.2394 12H37.3774L35.1814 7.752H34.2274V12H31.7434V0.299999ZM35.1454 6.564C35.5894 6.564 35.9314 6.492 36.1714 6.348C36.4234 6.192 36.6034 5.934 36.7114 5.574C36.8194 5.214 36.8734 4.716 36.8734 4.08C36.8734 3.144 36.7354 2.478 36.4594 2.082C36.1954 1.674 35.7394 1.47 35.0914 1.47H34.2274V6.564H35.1454ZM41.1057 12L44.9937 0.299999H47.7477L51.3837 12H48.7557L47.7477 8.724H43.6797L42.6177 12H41.1057ZM44.0397 7.59H47.4057L45.8037 2.082H45.7677L44.0397 7.59Z" fill="white"/>
</svg>
