<svg width="26" height="26" viewBox="0 0 26 26" fill="none" xmlns="http://www.w3.org/2000/svg">
<path d="M23.7189 14.4452C23.6147 14.3408 23.484 14.2667 23.3408 14.2309C23.1977 14.1951 23.0475 14.199 22.9064 14.2421C21.3571 14.7105 19.7098 14.7497 18.14 14.3557C16.5702 13.9617 15.1367 13.1492 13.9922 12.0047C12.8477 10.8603 12.0352 9.42676 11.6412 7.85694C11.2472 6.28712 11.2865 4.63981 11.7548 3.09054C11.7983 2.94937 11.8025 2.79902 11.7669 2.65567C11.7313 2.51231 11.6573 2.38136 11.5528 2.27692C11.4484 2.17247 11.3175 2.09847 11.1741 2.06288C11.0307 2.02729 10.8804 2.03145 10.7392 2.07492C8.59729 2.73106 6.71687 4.04604 5.36554 5.83273C4.18378 7.40173 3.46293 9.26917 3.28398 11.2253C3.10504 13.1814 3.47509 15.1486 4.35257 16.906C5.23004 18.6633 6.58017 20.1412 8.25127 21.1736C9.92237 22.2059 11.8482 22.7518 13.8125 22.75C16.1041 22.757 18.3347 22.012 20.1622 20.6294C21.9489 19.278 23.2639 17.3976 23.92 15.2557C23.963 15.1151 23.9669 14.9654 23.9315 14.8227C23.8961 14.6799 23.8226 14.5495 23.7189 14.4452ZM19.1852 19.3314C17.4642 20.6276 15.333 21.2585 13.1838 21.108C11.0346 20.9576 9.01205 20.0358 7.48854 18.5124C5.96504 16.989 5.0431 14.9666 4.89244 12.8174C4.74177 10.6682 5.37253 8.53689 6.66859 6.81586C7.51299 5.70076 8.60464 4.79684 9.85765 4.17523C9.78627 4.67616 9.7503 5.1815 9.75 5.6875C9.75295 8.48794 10.8667 11.1728 12.8469 13.153C14.8272 15.1333 17.5121 16.247 20.3125 16.25C20.8195 16.2498 21.3259 16.2139 21.8278 16.1423C21.2056 17.3956 20.301 18.4872 19.1852 19.3314Z" fill="white"/>
</svg>
