<svg width="21" height="22" viewBox="0 0 21 22" fill="none" xmlns="http://www.w3.org/2000/svg">
<path d="M10.0833 21.9604C9.76983 21.9604 9.47833 21.8789 9.20608 21.7377L6.4295 20.1445C6.01242 19.9227 6.22142 19.842 6.347 19.8017C6.90983 19.6202 7.01433 19.5799 7.59917 19.2563C7.6615 19.2159 7.74583 19.2361 7.80817 19.2764L9.93758 20.5075C10.0201 20.5479 10.1255 20.5479 10.1878 20.5075L18.5176 15.8472C18.6001 15.8069 18.6423 15.7262 18.6423 15.6254V6.32485C18.6423 6.22402 18.601 6.14335 18.5176 6.10302L10.1878 1.46377C10.1044 1.42344 9.99992 1.42344 9.93758 1.46377L1.60783 6.10302C1.52442 6.14335 1.48225 6.24419 1.48225 6.32485V15.6254C1.48225 15.706 1.52442 15.8069 1.60783 15.8472L3.883 17.1186C5.115 17.7236 5.88683 17.0178 5.88683 16.3119V7.13244C5.88683 7.01144 5.99133 6.89044 6.138 6.89044H7.20225C7.32783 6.89044 7.4525 6.99127 7.4525 7.13244V16.311C7.4525 17.9051 6.55508 18.8328 4.98942 18.8328C4.50908 18.8328 4.13325 18.8328 3.069 18.3286L0.87725 17.1186C0.613143 16.9734 0.392593 16.7603 0.238376 16.5013C0.0841598 16.2424 0.00186805 15.9469 0 15.6455V6.34502C0 5.74002 0.333667 5.17535 0.87725 4.87285L9.207 0.211604C9.47818 0.0725332 9.77857 0 10.0833 0C10.3881 0 10.6885 0.0725332 10.9597 0.211604L19.2903 4.87194C19.833 5.17444 20.1667 5.7391 20.1667 6.3441V15.6446C20.1667 16.2496 19.833 16.8143 19.2903 17.1177L10.9606 21.7771C10.6837 21.8971 10.3851 21.9589 10.0833 21.9586M12.6509 15.563C8.998 15.563 8.24633 13.9497 8.24633 12.5774C8.24633 12.4564 8.35083 12.3354 8.49658 12.3354H9.58192C9.7075 12.3354 9.81108 12.4161 9.81108 12.5371C9.97883 13.6059 10.4592 14.1303 12.672 14.1303C14.4256 14.1303 15.1773 13.7471 15.1773 12.8396C15.1773 12.3153 14.9683 11.9321 12.2338 11.6699C9.95775 11.4472 8.53875 10.9641 8.53875 9.20869C8.53875 7.57427 9.95775 6.60535 12.3383 6.60535C15.0104 6.60535 16.3258 7.4936 16.4927 9.43052C16.4908 9.4961 16.4687 9.55949 16.4294 9.61202C16.3882 9.65235 16.3258 9.69269 16.2626 9.69269H15.1773C15.1245 9.69141 15.0737 9.67301 15.0323 9.64027C14.991 9.60753 14.9614 9.56222 14.9481 9.51119C14.6969 8.40202 14.0498 8.0381 12.3383 8.0381C10.417 8.0381 10.1878 8.68344 10.1878 9.16835C10.1878 9.75319 10.4592 9.93469 13.0478 10.2574C15.6154 10.58 16.8263 11.0439 16.8263 12.7782C16.8053 14.5547 15.3028 15.563 12.6509 15.563Z" fill="white"/>
</svg>
