<svg width="22" height="22" viewBox="0 0 22 22" fill="none" xmlns="http://www.w3.org/2000/svg">
<g clip-path="url(#clip0_89_68)">
<path d="M11 21.9597C10.6865 21.9597 10.395 21.8781 10.1227 21.737L7.34613 20.1438C6.92904 19.922 7.13804 19.8413 7.26363 19.801C7.82646 19.6195 7.93096 19.5791 8.51579 19.2555C8.57813 19.2152 8.66246 19.2354 8.72479 19.2757L10.8542 20.5068C10.9367 20.5471 11.0421 20.5471 11.1045 20.5068L19.4342 15.8465C19.5167 15.8061 19.5589 15.7255 19.5589 15.6246V6.32412C19.5589 6.22329 19.5176 6.14262 19.4342 6.10229L11.1045 1.46304C11.021 1.42271 10.9165 1.42271 10.8542 1.46304L2.52446 6.10229C2.44104 6.14262 2.39888 6.24346 2.39888 6.32412V15.6246C2.39888 15.7053 2.44104 15.8061 2.52446 15.8465L4.79963 17.1179C6.03163 17.7229 6.80346 17.017 6.80346 16.3112V7.13171C6.80346 7.01071 6.90796 6.88971 7.05463 6.88971H8.11888C8.24446 6.88971 8.36913 6.99054 8.36913 7.13171V16.3103C8.36913 17.9044 7.47171 18.832 5.90604 18.832C5.42571 18.832 5.04988 18.832 3.98563 18.3279L1.79388 17.1179C1.52977 16.9726 1.30922 16.7595 1.155 16.5006C1.00079 16.2416 0.918494 15.9462 0.916626 15.6448V6.34429C0.916626 5.73929 1.25029 5.17462 1.79388 4.87212L10.1236 0.210872C10.3948 0.0718008 10.6952 -0.000732422 11 -0.000732422C11.3047 -0.000732422 11.6051 0.0718008 11.8763 0.210872L20.207 4.87121C20.7496 5.17371 21.0833 5.73837 21.0833 6.34337V15.6439C21.0833 16.2489 20.7496 16.8135 20.207 17.117L11.8772 21.7764C11.6003 21.8964 11.3017 21.9582 11 21.9579M13.5675 15.5623C9.91463 15.5623 9.16296 13.949 9.16296 12.5767C9.16296 12.4557 9.26746 12.3347 9.41321 12.3347H10.4985C10.6241 12.3347 10.7277 12.4154 10.7277 12.5364C10.8955 13.6052 11.3758 14.1295 13.5886 14.1295C15.3422 14.1295 16.0939 13.7464 16.0939 12.8389C16.0939 12.3145 15.8849 11.9314 13.1505 11.6692C10.8744 11.4465 9.45538 10.9634 9.45538 9.20796C9.45538 7.57354 10.8744 6.60462 13.255 6.60462C15.927 6.60462 17.2425 7.49287 17.4093 9.42979C17.4074 9.49536 17.3853 9.55876 17.346 9.61129C17.3048 9.65162 17.2425 9.69196 17.1792 9.69196H16.0939C16.0412 9.69068 15.9903 9.67228 15.9489 9.63954C15.9076 9.60679 15.878 9.56148 15.8647 9.51046C15.6135 8.40129 14.9664 8.03737 13.255 8.03737C11.3336 8.03737 11.1045 8.68271 11.1045 9.16762C11.1045 9.75246 11.3758 9.93396 13.9645 10.2566C16.532 10.5793 17.743 11.0431 17.743 12.7775C17.7219 14.554 16.2195 15.5623 13.5675 15.5623Z" fill="black"/>
</g>
<defs>
<clipPath id="clip0_89_68">
<rect width="22" height="22" fill="white"/>
</clipPath>
</defs>
</svg>
