<svg width="22" height="22" viewBox="0 0 22 22" fill="none" xmlns="http://www.w3.org/2000/svg">
<path d="M14.9966 12.8334C15.0699 12.2284 15.1249 11.6234 15.1249 11C15.1249 10.3767 15.0699 9.77171 14.9966 9.16671H18.0949C18.2416 9.75337 18.3333 10.3675 18.3333 11C18.3333 11.6325 18.2416 12.2467 18.0949 12.8334M13.3741 17.93C13.9241 16.9125 14.3458 15.8125 14.6391 14.6667H17.3433C16.4552 16.196 15.0462 17.3544 13.3741 17.93ZM13.1449 12.8334H8.85492C8.76325 12.2284 8.70825 11.6234 8.70825 11C8.70825 10.3767 8.76325 9.76254 8.85492 9.16671H13.1449C13.2274 9.76254 13.2916 10.3767 13.2916 11C13.2916 11.6234 13.2274 12.2284 13.1449 12.8334ZM10.9999 18.2967C10.2391 17.1967 9.62492 15.9775 9.24909 14.6667H12.7508C12.3749 15.9775 11.7608 17.1967 10.9999 18.2967ZM7.33325 7.33337H4.65659C5.53534 5.79982 6.94336 4.63951 8.61659 4.07004C8.06659 5.08754 7.65409 6.18754 7.33325 7.33337ZM4.65659 14.6667H7.33325C7.65409 15.8125 8.06659 16.9125 8.61659 17.93C6.94666 17.3547 5.54052 16.1959 4.65659 14.6667ZM3.90492 12.8334C3.75825 12.2467 3.66659 11.6325 3.66659 11C3.66659 10.3675 3.75825 9.75337 3.90492 9.16671H7.00325C6.92992 9.77171 6.87492 10.3767 6.87492 11C6.87492 11.6234 6.92992 12.2284 7.00325 12.8334M10.9999 3.69421C11.7608 4.79421 12.3749 6.02254 12.7508 7.33337H9.24909C9.62492 6.02254 10.2391 4.79421 10.9999 3.69421ZM17.3433 7.33337H14.6391C14.3518 6.19818 13.9269 5.1023 13.3741 4.07004C15.0608 4.64754 16.4633 5.81171 17.3433 7.33337ZM10.9999 1.83337C5.93075 1.83337 1.83325 5.95837 1.83325 11C1.83325 13.4312 2.79902 15.7628 4.51811 17.4819C5.36931 18.3331 6.37984 19.0083 7.49199 19.4689C8.60414 19.9296 9.79613 20.1667 10.9999 20.1667C13.4311 20.1667 15.7626 19.2009 17.4817 17.4819C19.2008 15.7628 20.1666 13.4312 20.1666 11C20.1666 9.79626 19.9295 8.60426 19.4688 7.49211C19.0081 6.37996 18.3329 5.36943 17.4817 4.51823C16.6305 3.66702 15.62 2.99181 14.5079 2.53115C13.3957 2.07048 12.2037 1.83337 10.9999 1.83337Z" fill="white"/>
</svg>
