<svg width="37" height="5" viewBox="0 0 37 5" fill="none" xmlns="http://www.w3.org/2000/svg">
<path d="M15.975 3.25367H18.4298L17.1469 1.09624L14.7645 4.99522H13.6651L16.561 0.30115C16.6365 0.224668 16.7213 0.156153 16.8108 0.0971982L16.8169 0.0940117C16.9132 0.032227 17.0243 -0.00034849 17.1377 2.81164e-06H17.1469C17.2525 0.00143355 17.3554 0.0346585 17.443 0.0956057L17.4414 0.0940117C17.534 0.152975 17.6198 0.222454 17.6974 0.30115L20.5933 4.99522H19.4938L18.9803 4.12524H16.5255L15.975 3.25367ZM27.1868 4.12524V0.0748911H26.2708V4.5188C26.2708 4.58254 26.2847 4.64309 26.3094 4.69726L26.3079 4.69407C26.336 4.75047 26.373 4.80163 26.4173 4.84544C26.443 4.89743 26.4864 4.93774 26.5392 4.95857C26.6015 4.98392 26.6695 4.99689 26.7365 4.99681H30.9184L31.4319 4.12683L27.1868 4.12524ZM12.0537 3.3668H12.0769C12.5102 3.3668 12.9034 3.18674 13.1902 2.89356C13.3406 2.74934 13.4606 2.57454 13.5426 2.38014C13.6246 2.18574 13.6668 1.97593 13.6666 1.76387V1.69376C13.6667 1.47914 13.6244 1.26675 13.5425 1.06953C13.4606 0.872305 13.3407 0.694364 13.1902 0.54653C13.0438 0.395974 12.8701 0.276691 12.6791 0.195494C12.488 0.114297 12.2834 0.0727733 12.0769 0.0732971H8.02142V4.99522H8.94199V0.944872H12.0059C12.2125 0.944872 12.3976 1.03251 12.5317 1.17272C12.6014 1.24373 12.6568 1.32831 12.6947 1.42157C12.7325 1.51484 12.7521 1.61493 12.7522 1.71606V1.74156V1.73996C12.7509 1.9456 12.6724 2.14268 12.5333 2.28968C12.4662 2.36734 12.384 2.42948 12.292 2.47204C12.2001 2.5146 12.1005 2.53662 11.9998 2.53665H9.37837L12.1262 4.99841H13.4446L11.6112 3.36998L12.0537 3.3668ZM2.37929 4.99522H2.36696C1.71932 4.99522 1.13336 4.71957 0.713944 4.27661C0.488086 4.05793 0.308158 3.7936 0.18534 3.50003C0.0625217 3.20646 -0.000563561 2.88993 3.79309e-06 2.57011V2.49841C3.79309e-06 1.82601 0.274478 1.22053 0.713944 0.793502L0.715486 0.791908C0.930817 0.563969 1.18818 0.382939 1.47236 0.259513C1.75654 0.136086 2.06178 0.0727673 2.37004 0.0732971H5.20575C5.85185 0.0732971 6.43472 0.348951 6.8526 0.791908C7.28281 1.22371 7.54803 1.82601 7.54803 2.49363V2.53506V2.57011C7.54803 3.23933 7.27973 3.84321 6.84951 4.27502C6.63578 4.50294 6.37981 4.68403 6.09686 4.8075C5.81392 4.93096 5.50981 4.99426 5.20267 4.99363H5.16258L2.37929 4.99522ZM5.09319 4.12524H5.1302C5.32895 4.12556 5.52566 4.08372 5.70814 4.00232C5.89062 3.92092 6.05499 3.80169 6.19108 3.65201C6.47278 3.36019 6.63085 2.96476 6.63055 2.55258V2.49363C6.63081 2.29047 6.59211 2.08927 6.51668 1.90166C6.44125 1.71404 6.33059 1.54373 6.19108 1.40058C6.05254 1.25642 5.88773 1.14207 5.70616 1.06413C5.5246 0.986185 5.32989 0.946193 5.13328 0.946465H5.09011H2.4348C2.03592 0.946157 1.65324 1.10949 1.37083 1.40058C1.22608 1.54162 1.11077 1.71177 1.03201 1.90057C0.953256 2.08937 0.912707 2.29282 0.912861 2.49841V2.53824V2.53665V2.5478C0.912721 2.75442 0.953092 2.95893 1.03154 3.14898C1.10998 3.33903 1.22488 3.51069 1.36929 3.6536C1.50729 3.80334 1.67333 3.9225 1.8573 4.00386C2.04126 4.08521 2.23932 4.12705 2.43943 4.12683H2.45022L5.09319 4.12524ZM22.4976 4.99522H22.4591C21.813 4.99522 21.2301 4.71957 20.8122 4.27661C20.5916 4.05576 20.4164 3.79125 20.2969 3.49888C20.1774 3.20651 20.1162 2.89226 20.1168 2.57489V2.49522C20.1168 1.8276 20.3835 1.22531 20.8122 0.793502C21.0259 0.56558 21.2819 0.384484 21.5649 0.26102C21.8478 0.137556 22.1519 0.0742538 22.4591 0.0748911H22.4991H22.4976H25.7944L25.2439 0.944872H22.513C22.1141 0.944565 21.7315 1.1079 21.4491 1.39898C21.3043 1.54003 21.189 1.71018 21.1102 1.89898C21.0315 2.08778 20.9909 2.29123 20.9911 2.49682V2.53665V2.53506V2.54621C20.9909 2.75283 21.0313 2.95733 21.1098 3.14739C21.1882 3.33744 21.3031 3.5091 21.4475 3.65201C21.5855 3.80174 21.7515 3.92091 21.9355 4.00226C22.1195 4.08362 22.3175 4.12546 22.5177 4.12524H25.8591L25.3086 4.99522H22.4976ZM33.6724 4.12524H33.6601C33.3281 4.12545 33.0069 4.00407 32.7534 3.78266L32.7549 3.78426C32.4978 3.57284 32.3072 3.28722 32.2075 2.96367L32.2044 2.95093H36.1242L36.6376 2.08094H32.2044C32.3046 1.74952 32.4943 1.47387 32.7457 1.2747L32.7487 1.27151C33.0052 1.06243 33.3226 0.949006 33.6493 0.949651H36.3786L36.9291 0.0796717H33.5938C32.9477 0.0796717 32.3648 0.355325 31.9469 0.798282C31.7263 1.01914 31.5511 1.28364 31.4316 1.57601C31.3121 1.86838 31.2509 2.18263 31.2515 2.5V2.54143V2.53984V2.57967C31.2515 3.24729 31.5182 3.84959 31.9469 4.28139C32.3648 4.72594 32.9477 5 33.5938 5H33.6338H36.4495L37 4.13002L33.6724 4.12524Z" fill="white"/>
</svg>
