<svg width="22" height="22" viewBox="0 0 22 22" fill="none" xmlns="http://www.w3.org/2000/svg">
<path d="M9.49752 11.4061H10.9569L10.1942 10.165L8.77794 12.4081H8.12436L9.84586 9.70755C9.89077 9.66355 9.94119 9.62414 9.99436 9.59022L9.99802 9.58839C10.0553 9.55284 10.1213 9.5341 10.1887 9.5343H10.1942C10.257 9.53513 10.3181 9.55424 10.3702 9.5893L10.3693 9.58839C10.4243 9.62231 10.4753 9.66228 10.5214 9.70755L12.2429 12.4081H11.5894L11.2841 11.9076H9.82477L9.49752 11.4061ZM16.1626 11.9076V9.57739H15.6181V12.134C15.6181 12.1706 15.6264 12.2055 15.641 12.2366L15.6401 12.2348C15.6568 12.2672 15.6788 12.2967 15.7052 12.3219C15.7204 12.3518 15.7462 12.375 15.7776 12.387C15.8147 12.4016 15.8551 12.409 15.8949 12.409H18.3809L18.6862 11.9085L16.1626 11.9076ZM7.16644 11.4712H7.18019C7.43777 11.4712 7.67152 11.3676 7.84202 11.199C7.93146 11.116 8.00279 11.0154 8.05153 10.9036C8.10027 10.7918 8.12538 10.6711 8.12527 10.5491V10.5087C8.12529 10.3852 8.10019 10.2631 8.0515 10.1496C8.0028 10.0361 7.93153 9.93377 7.84202 9.84872C7.75499 9.76211 7.65174 9.69348 7.53819 9.64677C7.42463 9.60006 7.30298 9.57617 7.18019 9.57647H4.76936V12.4081H5.31661V10.0779H7.13802C7.26086 10.0779 7.37086 10.1283 7.45061 10.209C7.49204 10.2498 7.52496 10.2985 7.54746 10.3521C7.56996 10.4058 7.58159 10.4634 7.58169 10.5216V10.5362V10.5353C7.58092 10.6536 7.53425 10.767 7.45152 10.8516C7.41164 10.8962 7.36277 10.932 7.30811 10.9565C7.25346 10.981 7.19425 10.9936 7.13436 10.9936H5.57602L7.20952 12.4099H7.99327L6.90336 11.4731L7.16644 11.4712ZM1.41527 12.4081H1.40794C1.02294 12.4081 0.674607 12.2495 0.425273 11.9946C0.291007 11.8688 0.184046 11.7168 0.111034 11.5479C0.0380218 11.379 0.000519472 11.1969 0.000856747 11.0129V10.9716C0.000856747 10.5848 0.164023 10.2365 0.425273 9.9908L0.42619 9.98989C0.554198 9.85875 0.70719 9.75461 0.876127 9.6836C1.04506 9.61259 1.22652 9.57616 1.40977 9.57647H3.09552C3.47961 9.57647 3.82611 9.73505 4.07452 9.98989C4.33027 10.2383 4.48794 10.5848 4.48794 10.9689V10.9927V11.0129C4.48794 11.3979 4.32844 11.7453 4.07269 11.9937C3.94563 12.1248 3.79346 12.229 3.62526 12.3001C3.45706 12.3711 3.27627 12.4075 3.09369 12.4071H3.06986L1.41527 12.4081ZM3.02861 11.9076H3.05061C3.16876 11.9077 3.2857 11.8837 3.39418 11.8368C3.50266 11.79 3.60037 11.7214 3.68127 11.6353C3.84874 11.4674 3.9427 11.2399 3.94252 11.0028V10.9689C3.94268 10.852 3.91967 10.7363 3.87483 10.6283C3.82999 10.5204 3.7642 10.4224 3.68127 10.3401C3.59891 10.2571 3.50094 10.1913 3.393 10.1465C3.28507 10.1017 3.16932 10.0786 3.05244 10.0788H3.02677H1.44827C1.21115 10.0786 0.983655 10.1726 0.815773 10.3401C0.729721 10.4212 0.661177 10.5191 0.614357 10.6277C0.567537 10.7363 0.543432 10.8534 0.543523 10.9716V10.9946V10.9936V11.0001C0.54344 11.1189 0.56744 11.2366 0.614074 11.3459C0.660707 11.4552 0.729009 11.554 0.814857 11.6362C0.896896 11.7224 0.995599 11.7909 1.10496 11.8377C1.21433 11.8845 1.33207 11.9086 1.45102 11.9085H1.45744L3.02861 11.9076ZM13.375 12.4081H13.3521C12.968 12.4081 12.6215 12.2495 12.3731 11.9946C12.242 11.8676 12.1378 11.7154 12.0668 11.5472C11.9957 11.379 11.9593 11.1982 11.9597 11.0156V10.9698C11.9597 10.5857 12.1183 10.2392 12.3731 9.9908C12.5002 9.85968 12.6523 9.7555 12.8205 9.68447C12.9887 9.61344 13.1695 9.57702 13.3521 9.57739H13.3759H13.375H15.3349L15.0076 10.0779H13.3842C13.1471 10.0777 12.9196 10.1717 12.7517 10.3391C12.6656 10.4203 12.5971 10.5182 12.5503 10.6268C12.5035 10.7354 12.4794 10.8524 12.4794 10.9707V10.9936V10.9927V10.9991C12.4794 11.118 12.5034 11.2357 12.55 11.345C12.5966 11.4543 12.6649 11.5531 12.7508 11.6353C12.8328 11.7214 12.9315 11.79 13.0409 11.8368C13.1502 11.8836 13.268 11.9077 13.3869 11.9076H15.3734L15.0461 12.4081H13.375ZM20.0181 11.9076H20.0108C19.8135 11.9077 19.6225 11.8378 19.4718 11.7105L19.4727 11.7114C19.3198 11.5898 19.2066 11.4254 19.1473 11.2393L19.1454 11.232H21.4756L21.7809 10.7315H19.1454C19.205 10.5408 19.3178 10.3822 19.4672 10.2676L19.469 10.2658C19.6215 10.1455 19.8101 10.0803 20.0044 10.0806H21.6269L21.9541 9.58014H19.9714C19.5873 9.58014 19.2408 9.73872 18.9924 9.99355C18.8612 10.1206 18.7571 10.2728 18.686 10.441C18.615 10.6092 18.5786 10.79 18.5789 10.9726V10.9964V10.9955V11.0184C18.5789 11.4025 18.7375 11.749 18.9924 11.9974C19.2408 12.2531 19.5873 12.4108 19.9714 12.4108H19.9952H21.669L21.9963 11.9103L20.0181 11.9076Z" fill="white"/>
</svg>
