<svg width="22" height="22" viewBox="0 0 22 22" fill="none" xmlns="http://www.w3.org/2000/svg">
<path d="M11 9.26744C11.9442 9.26744 12.7142 10.0374 12.7142 10.9999C12.7142 11.9166 11.9442 12.6958 11 12.6958C10.0559 12.6958 9.28587 11.9166 9.28587 10.9999C9.28587 10.0374 10.0559 9.26744 11 9.26744ZM6.75587 18.3333C7.33337 18.6816 8.59837 18.1499 10.0559 16.7749C9.57921 16.2341 9.11171 15.6474 8.67171 15.0333C7.93308 14.9621 7.19872 14.8519 6.47171 14.7033C6.00421 16.6649 6.17837 18.0124 6.75587 18.3333ZM7.40671 13.0716L7.14087 12.6041C7.04004 12.8699 6.93921 13.1358 6.87504 13.3924C7.12254 13.4474 7.39754 13.4933 7.68171 13.5391L7.40671 13.0716ZM13.4017 12.3749L14.1442 10.9999L13.4017 9.62494C13.1267 9.13911 12.8334 8.70827 12.5675 8.27744C12.0725 8.24994 11.55 8.24994 11 8.24994C10.45 8.24994 9.92754 8.24994 9.43254 8.27744C9.16671 8.70827 8.87337 9.13911 8.59837 9.62494L7.85587 10.9999L8.59837 12.3749C8.87337 12.8608 9.16671 13.2916 9.43254 13.7224C9.92754 13.7499 10.45 13.7499 11 13.7499C11.55 13.7499 12.0725 13.7499 12.5675 13.7224C12.8334 13.2916 13.1267 12.8608 13.4017 12.3749ZM11 6.21494C10.8259 6.41661 10.6425 6.62744 10.4592 6.87494H11.5409C11.3575 6.62744 11.1742 6.41661 11 6.21494ZM11 15.7849C11.1742 15.5833 11.3575 15.3724 11.5409 15.1249H10.4592C10.6425 15.3724 10.8259 15.5833 11 15.7849ZM15.235 3.66661C14.6667 3.31827 13.4017 3.84994 11.9442 5.22494C12.4209 5.76577 12.8884 6.35244 13.3284 6.96661C14.08 7.03994 14.8225 7.14994 15.5284 7.29661C15.9959 5.33494 15.8217 3.98744 15.235 3.66661ZM14.5934 8.92827L14.8592 9.39577C14.96 9.12994 15.0609 8.86411 15.125 8.60744C14.8775 8.55244 14.6025 8.50661 14.3184 8.46077L14.5934 8.92827ZM15.9225 2.46577C17.27 3.23577 17.4167 5.26161 16.8484 7.62661C19.1767 8.31411 20.8542 9.45077 20.8542 10.9999C20.8542 12.5491 19.1767 13.6858 16.8484 14.3733C17.4167 16.7383 17.27 18.7641 15.9225 19.5341C14.5842 20.3041 12.76 19.4241 11 17.7466C9.24004 19.4241 7.41587 20.3041 6.06837 19.5341C4.73004 18.7641 4.58337 16.7383 5.15171 14.3733C2.82337 13.6858 1.14587 12.5491 1.14587 10.9999C1.14587 9.45077 2.82337 8.31411 5.15171 7.62661C4.58337 5.26161 4.73004 3.23577 6.06837 2.46577C7.41587 1.69577 9.24004 2.57577 11 4.25327C12.76 2.57577 14.5842 1.69577 15.9225 2.46577ZM15.6567 10.9999C15.9684 11.6874 16.2434 12.3749 16.4725 13.0716C18.3975 12.4941 19.4792 11.6691 19.4792 10.9999C19.4792 10.3308 18.3975 9.50577 16.4725 8.92827C16.2434 9.62494 15.9684 10.3124 15.6567 10.9999ZM6.34337 10.9999C6.03171 10.3124 5.75671 9.62494 5.52754 8.92827C3.60254 9.50577 2.52087 10.3308 2.52087 10.9999C2.52087 11.6691 3.60254 12.4941 5.52754 13.0716C5.75671 12.3749 6.03171 11.6874 6.34337 10.9999ZM14.5934 13.0716L14.3184 13.5391C14.6025 13.4933 14.8775 13.4474 15.125 13.3924C15.0609 13.1358 14.96 12.8699 14.8592 12.6041L14.5934 13.0716ZM11.9442 16.7749C13.4017 18.1499 14.6667 18.6816 15.235 18.3333C15.8217 18.0124 15.9959 16.6649 15.5284 14.7033C14.8225 14.8499 14.08 14.9599 13.3284 15.0333C12.8884 15.6474 12.4209 16.2341 11.9442 16.7749ZM7.40671 8.92827L7.68171 8.46077C7.39754 8.50661 7.12254 8.55244 6.87504 8.60744C6.93921 8.86411 7.04004 9.12994 7.14087 9.39577L7.40671 8.92827ZM10.0559 5.22494C8.59837 3.84994 7.33337 3.31827 6.75587 3.66661C6.17837 3.98744 6.00421 5.33494 6.47171 7.29661C7.19872 7.14797 7.93308 7.03781 8.67171 6.96661C9.11171 6.35244 9.57921 5.76577 10.0559 5.22494Z" fill="black"/>
</svg>
