<svg width="20" height="18" viewBox="0 0 20 18" fill="none" xmlns="http://www.w3.org/2000/svg">
<path d="M9.85417 7.08311C10.7983 7.08311 11.5683 7.85311 11.5683 8.81561C11.5683 9.73228 10.7983 10.5114 9.85417 10.5114C8.91 10.5114 8.14 9.73228 8.14 8.81561C8.14 7.85311 8.91 7.08311 9.85417 7.08311ZM5.61 16.1489C6.1875 16.4973 7.4525 15.9656 8.91 14.5906C8.43333 14.0498 7.96583 13.4631 7.52583 12.8489C6.7872 12.7777 6.05285 12.6676 5.32583 12.5189C4.85833 14.4806 5.0325 15.8281 5.61 16.1489ZM6.26083 10.8873L5.995 10.4198C5.89417 10.6856 5.79333 10.9514 5.72917 11.2081C5.97667 11.2631 6.25167 11.3089 6.53583 11.3548L6.26083 10.8873ZM12.2558 10.1906L12.9983 8.81561L12.2558 7.44061C11.9808 6.95478 11.6875 6.52395 11.4217 6.09311C10.9267 6.06561 10.4042 6.06561 9.85417 6.06561C9.30417 6.06561 8.78167 6.06561 8.28667 6.09311C8.02083 6.52395 7.7275 6.95478 7.4525 7.44061L6.71 8.81561L7.4525 10.1906C7.7275 10.6764 8.02083 11.1073 8.28667 11.5381C8.78167 11.5656 9.30417 11.5656 9.85417 11.5656C10.4042 11.5656 10.9267 11.5656 11.4217 11.5381C11.6875 11.1073 11.9808 10.6764 12.2558 10.1906ZM9.85417 4.03061C9.68 4.23228 9.49667 4.44311 9.31333 4.69061H10.395C10.2117 4.44311 10.0283 4.23228 9.85417 4.03061ZM9.85417 13.6006C10.0283 13.3989 10.2117 13.1881 10.395 12.9406H9.31333C9.49667 13.1881 9.68 13.3989 9.85417 13.6006ZM14.0892 1.48228C13.5208 1.13395 12.2558 1.66561 10.7983 3.04061C11.275 3.58145 11.7425 4.16811 12.1825 4.78228C12.9342 4.85561 13.6767 4.96561 14.3825 5.11228C14.85 3.15061 14.6758 1.80311 14.0892 1.48228ZM13.4475 6.74395L13.7133 7.21145C13.8142 6.94561 13.915 6.67978 13.9792 6.42311C13.7317 6.36811 13.4567 6.32228 13.1725 6.27645L13.4475 6.74395ZM14.7767 0.281447C16.1242 1.05145 16.2708 3.07728 15.7025 5.44228C18.0308 6.12978 19.7083 7.26645 19.7083 8.81561C19.7083 10.3648 18.0308 11.5014 15.7025 12.1889C16.2708 14.5539 16.1242 16.5798 14.7767 17.3498C13.4383 18.1198 11.6142 17.2398 9.85417 15.5623C8.09417 17.2398 6.27 18.1198 4.9225 17.3498C3.58417 16.5798 3.4375 14.5539 4.00583 12.1889C1.6775 11.5014 0 10.3648 0 8.81561C0 7.26645 1.6775 6.12978 4.00583 5.44228C3.4375 3.07728 3.58417 1.05145 4.9225 0.281447C6.27 -0.488553 8.09417 0.391447 9.85417 2.06895C11.6142 0.391447 13.4383 -0.488553 14.7767 0.281447ZM14.5108 8.81561C14.8225 9.50311 15.0975 10.1906 15.3267 10.8873C17.2517 10.3098 18.3333 9.48478 18.3333 8.81561C18.3333 8.14645 17.2517 7.32145 15.3267 6.74395C15.0975 7.44061 14.8225 8.12811 14.5108 8.81561ZM5.1975 8.81561C4.88583 8.12811 4.61083 7.44061 4.38167 6.74395C2.45667 7.32145 1.375 8.14645 1.375 8.81561C1.375 9.48478 2.45667 10.3098 4.38167 10.8873C4.61083 10.1906 4.88583 9.50311 5.1975 8.81561ZM13.4475 10.8873L13.1725 11.3548C13.4567 11.3089 13.7317 11.2631 13.9792 11.2081C13.915 10.9514 13.8142 10.6856 13.7133 10.4198L13.4475 10.8873ZM10.7983 14.5906C12.2558 15.9656 13.5208 16.4973 14.0892 16.1489C14.6758 15.8281 14.85 14.4806 14.3825 12.5189C13.6767 12.6656 12.9342 12.7756 12.1825 12.8489C11.7425 13.4631 11.275 14.0498 10.7983 14.5906ZM6.26083 6.74395L6.53583 6.27645C6.25167 6.32228 5.97667 6.36811 5.72917 6.42311C5.79333 6.67978 5.89417 6.94561 5.995 7.21145L6.26083 6.74395ZM8.91 3.04061C7.4525 1.66561 6.1875 1.13395 5.61 1.48228C5.0325 1.80311 4.85833 3.15061 5.32583 5.11228C6.05285 4.96364 6.7872 4.85349 7.52583 4.78228C7.96583 4.16811 8.43333 3.58145 8.91 3.04061Z" fill="white"/>
</svg>
