<svg width="22" height="22" viewBox="0 0 22 22" fill="none" xmlns="http://www.w3.org/2000/svg">
<g clip-path="url(#clip0_89_60)">
<path d="M20.0328 1.29796C19.7269 2.03045 19.3316 2.72229 18.8558 3.35771C17.8365 2.3019 16.6157 1.46135 15.2656 0.885848C13.9156 0.310344 12.4638 0.0115814 10.9963 0.00724993C9.5287 0.00291851 8.07518 0.293107 6.72178 0.860632C5.36838 1.42816 4.14262 2.26148 3.11708 3.31126C2.09153 4.36103 1.28705 5.60592 0.751283 6.9722C0.215512 8.33848 -0.0406603 9.79838 -0.00206501 11.2654C0.0365303 12.7325 0.369108 14.1769 0.975976 15.5131C1.58284 16.8494 2.45166 18.0502 3.53099 19.0446L3.93799 19.4067C5.48415 20.7109 7.36114 21.5617 9.36107 21.8649C11.361 22.168 13.4058 21.9117 15.269 21.1242C17.1322 20.3368 18.7411 19.049 19.9175 17.4035C21.0938 15.7579 21.7918 13.8189 21.934 11.8011C22.2512 9.03921 21.4133 5.50821 20.0328 1.29796ZM5.11499 19.1354C4.99863 19.2782 4.84256 19.3834 4.66647 19.4376C4.49038 19.4918 4.30217 19.4927 4.12562 19.44C3.94907 19.3873 3.79208 19.2835 3.67448 19.1416C3.55689 18.9998 3.48396 18.8263 3.46491 18.6431C3.44585 18.4598 3.48153 18.275 3.56742 18.112C3.65332 17.949 3.78559 17.8151 3.94753 17.7272C4.10947 17.6394 4.29382 17.6015 4.4773 17.6183C4.66077 17.6351 4.83515 17.7059 4.9784 17.8218C5.1661 17.9807 5.2851 18.206 5.31056 18.4507C5.33601 18.6953 5.26594 18.9412 5.11499 19.1354ZM19.9641 15.8519C17.27 19.4507 11.4757 18.2288 7.78524 18.4094C7.78524 18.4094 7.1289 18.4552 6.47257 18.545C6.47257 18.545 6.7219 18.4323 7.03907 18.3186C9.6424 17.4139 10.8643 17.2324 12.4483 16.4175C15.4137 14.9013 18.3792 11.5738 18.9677 8.13262C17.8356 11.4381 14.3953 14.2899 11.2713 15.444C9.12082 16.2369 5.25065 17.006 5.25065 17.006L5.09207 16.9152C2.46582 15.6255 2.37599 9.92104 7.17474 8.08771C9.2794 7.27187 11.2722 7.72562 13.5575 7.18204C15.9802 6.61646 18.7871 4.80512 19.9192 2.42821C21.186 6.25437 22.7251 12.1843 19.9641 15.8519Z" fill="black"/>
</g>
<defs>
<clipPath id="clip0_89_60">
<rect width="22" height="22" fill="white"/>
</clipPath>
</defs>
</svg>
