<svg width="22" height="22" viewBox="0 0 22 22" fill="none" xmlns="http://www.w3.org/2000/svg">
<g clip-path="url(#clip0_67_74)">
<path d="M20.0328 1.29802C19.7269 2.03051 19.3316 2.72235 18.8558 3.35777C17.8365 2.30196 16.6157 1.46141 15.2656 0.885909C13.9156 0.310406 12.4638 0.0116424 10.9963 0.00731097C9.5287 0.00297954 8.07518 0.293168 6.72178 0.860693C5.36838 1.42822 4.14262 2.26154 3.11708 3.31132C2.09153 4.36109 1.28705 5.60598 0.751283 6.97226C0.215512 8.33854 -0.0406603 9.79844 -0.00206501 11.2655C0.0365303 12.7326 0.369108 14.177 0.975976 15.5132C1.58284 16.8494 2.45166 18.0503 3.53099 19.0447L3.93799 19.4068C5.48415 20.711 7.36114 21.5618 9.36107 21.8649C11.361 22.1681 13.4058 21.9117 15.269 21.1243C17.1322 20.3368 18.7411 19.049 19.9175 17.4035C21.0938 15.758 21.7918 13.819 21.934 11.8012C22.2512 9.03927 21.4133 5.50827 20.0328 1.29802ZM5.11499 19.1354C4.99863 19.2783 4.84256 19.3835 4.66647 19.4377C4.49038 19.4919 4.30217 19.4927 4.12562 19.44C3.94907 19.3874 3.79208 19.2835 3.67448 19.1417C3.55689 18.9999 3.48396 18.8264 3.46491 18.6431C3.44585 18.4599 3.48153 18.2751 3.56742 18.1121C3.65332 17.9491 3.78559 17.8152 3.94753 17.7273C4.10947 17.6394 4.29382 17.6015 4.4773 17.6183C4.66077 17.6352 4.83515 17.706 4.9784 17.8218C5.1661 17.9808 5.2851 18.2061 5.31056 18.4507C5.33601 18.6954 5.26594 18.9413 5.11499 19.1354ZM19.9641 15.8519C17.27 19.4508 11.4757 18.2289 7.78524 18.4094C7.78524 18.4094 7.1289 18.4553 6.47257 18.5451C6.47257 18.5451 6.7219 18.4323 7.03907 18.3187C9.6424 17.4139 10.8643 17.2324 12.4483 16.4175C15.4137 14.9014 18.3792 11.5739 18.9677 8.13268C17.8356 11.4382 14.3953 14.2899 11.2713 15.444C9.12082 16.2369 5.25065 17.006 5.25065 17.006L5.09207 16.9153C2.46582 15.6255 2.37599 9.9211 7.17474 8.08777C9.2794 7.27193 11.2722 7.72569 13.5575 7.1821C15.9802 6.61652 18.7871 4.80519 19.9192 2.42827C21.186 6.25443 22.7251 12.1844 19.9641 15.8519Z" fill="white"/>
</g>
<defs>
<clipPath id="clip0_67_74">
<rect width="22" height="22" fill="white"/>
</clipPath>
</defs>
</svg>
