<svg width="22" height="22" viewBox="0 0 22 22" fill="none" xmlns="http://www.w3.org/2000/svg">
<path d="M15.5833 7.33337V14.6667H19.25M11.9167 13.75L12.8333 14.6667M2.75 13.75C2.75 13.9932 2.84658 14.2263 3.01849 14.3982C3.19039 14.5701 3.42355 14.6667 3.66667 14.6667H5.5C5.74312 14.6667 5.97627 14.5701 6.14818 14.3982C6.32009 14.2263 6.41667 13.9932 6.41667 13.75V11.9167C6.41667 11.6736 6.32009 11.4404 6.14818 11.2685C5.97627 11.0966 5.74312 11 5.5 11H3.66667C3.42355 11 3.19039 10.9035 3.01849 10.7316C2.84658 10.5596 2.75 10.3265 2.75 10.0834V8.25004C2.75 8.00693 2.84658 7.77377 3.01849 7.60186C3.19039 7.42995 3.42355 7.33337 3.66667 7.33337H5.5C5.74312 7.33337 5.97627 7.42995 6.14818 7.60186C6.32009 7.77377 6.41667 8.00693 6.41667 8.25004M11 7.33337C11.4862 7.33337 11.9525 7.52653 12.2964 7.87035C12.6402 8.21416 12.8333 8.68048 12.8333 9.16671V12.8334C12.8333 13.3196 12.6402 13.7859 12.2964 14.1297C11.9525 14.4736 11.4862 14.6667 11 14.6667C10.5138 14.6667 10.0475 14.4736 9.70364 14.1297C9.35982 13.7859 9.16667 13.3196 9.16667 12.8334V9.16671C9.16667 8.68048 9.35982 8.21416 9.70364 7.87035C10.0475 7.52653 10.5138 7.33337 11 7.33337Z" stroke="black" stroke-width="1.83333" stroke-linecap="round" stroke-linejoin="round"/>
</svg>
