<svg width="19" height="10" viewBox="0 0 19 10" fill="none" xmlns="http://www.w3.org/2000/svg">
<path d="M13.8333 1V8.33333H17.5M10.1667 7.41667L11.0833 8.33333M1 7.41667C1 7.65978 1.09658 7.89294 1.26849 8.06485C1.44039 8.23676 1.67355 8.33333 1.91667 8.33333H3.75C3.99312 8.33333 4.22627 8.23676 4.39818 8.06485C4.57009 7.89294 4.66667 7.65978 4.66667 7.41667V5.58333C4.66667 5.34022 4.57009 5.10706 4.39818 4.93515C4.22627 4.76324 3.99312 4.66667 3.75 4.66667H1.91667C1.67355 4.66667 1.44039 4.57009 1.26849 4.39818C1.09658 4.22627 1 3.99312 1 3.75V1.91667C1 1.67355 1.09658 1.44039 1.26849 1.26849C1.44039 1.09658 1.67355 1 1.91667 1H3.75C3.99312 1 4.22627 1.09658 4.39818 1.26849C4.57009 1.44039 4.66667 1.67355 4.66667 1.91667M9.25 1C9.73623 1 10.2025 1.19315 10.5464 1.53697C10.8902 1.88079 11.0833 2.3471 11.0833 2.83333V6.5C11.0833 6.98623 10.8902 7.45255 10.5464 7.79636C10.2025 8.14018 9.73623 8.33333 9.25 8.33333C8.76377 8.33333 8.29745 8.14018 7.95364 7.79636C7.60982 7.45255 7.41667 6.98623 7.41667 6.5V2.83333C7.41667 2.3471 7.60982 1.88079 7.95364 1.53697C8.29745 1.19315 8.76377 1 9.25 1Z" stroke="white" stroke-width="1.83333" stroke-linecap="round" stroke-linejoin="round"/>
</svg>
