<svg width="21" height="21" viewBox="0 0 21 21" fill="none" xmlns="http://www.w3.org/2000/svg">
<path d="M9.625 2.75V0.6875C9.625 0.505164 9.69743 0.330295 9.82636 0.201364C9.9553 0.0724328 10.1302 0 10.3125 0C10.4948 0 10.6697 0.0724328 10.7986 0.201364C10.9276 0.330295 11 0.505164 11 0.6875V2.75C11 2.93234 10.9276 3.1072 10.7986 3.23614C10.6697 3.36507 10.4948 3.4375 10.3125 3.4375C10.1302 3.4375 9.9553 3.36507 9.82636 3.23614C9.69743 3.1072 9.625 2.93234 9.625 2.75ZM15.8125 10.3125C15.8125 11.4003 15.4899 12.4637 14.8856 13.3681C14.2812 14.2726 13.4223 14.9776 12.4173 15.3938C11.4123 15.8101 10.3064 15.919 9.2395 15.7068C8.17261 15.4946 7.1926 14.9708 6.42341 14.2016C5.65422 13.4324 5.1304 12.4524 4.91818 11.3855C4.70596 10.3186 4.81488 9.21273 5.23116 8.20774C5.64744 7.20275 6.35239 6.34376 7.25686 5.73942C8.16133 5.13507 9.2247 4.8125 10.3125 4.8125C11.7707 4.81409 13.1687 5.39407 14.1998 6.42517C15.2309 7.45628 15.8109 8.8543 15.8125 10.3125ZM14.4375 10.3125C14.4375 9.49665 14.1956 8.69913 13.7423 8.02077C13.2891 7.34242 12.6448 6.81371 11.8911 6.5015C11.1373 6.18929 10.3079 6.1076 9.50775 6.26676C8.70758 6.42593 7.97258 6.81879 7.39568 7.39568C6.81879 7.97258 6.42593 8.70758 6.26676 9.50775C6.1076 10.3079 6.18929 11.1373 6.5015 11.8911C6.81371 12.6448 7.34242 13.2891 8.02077 13.7423C8.69913 14.1956 9.49665 14.4375 10.3125 14.4375C11.4062 14.4364 12.4547 14.0014 13.2281 13.2281C14.0014 12.4547 14.4364 11.4062 14.4375 10.3125ZM4.32609 5.29891C4.4551 5.42791 4.63006 5.50038 4.8125 5.50038C4.99494 5.50038 5.1699 5.42791 5.29891 5.29891C5.42791 5.1699 5.50038 4.99494 5.50038 4.8125C5.50038 4.63006 5.42791 4.4551 5.29891 4.32609L3.92391 2.95109C3.7949 2.82209 3.61994 2.74962 3.4375 2.74962C3.25506 2.74962 3.0801 2.82209 2.95109 2.95109C2.82209 3.0801 2.74962 3.25506 2.74962 3.4375C2.74962 3.61994 2.82209 3.7949 2.95109 3.92391L4.32609 5.29891ZM4.32609 15.3261L2.95109 16.7011C2.82209 16.8301 2.74962 17.0051 2.74962 17.1875C2.74962 17.3699 2.82209 17.5449 2.95109 17.6739C3.0801 17.8029 3.25506 17.8754 3.4375 17.8754C3.61994 17.8754 3.7949 17.8029 3.92391 17.6739L5.29891 16.2989C5.36278 16.235 5.41345 16.1592 5.44802 16.0757C5.48259 15.9923 5.50038 15.9028 5.50038 15.8125C5.50038 15.7222 5.48259 15.6327 5.44802 15.5493C5.41345 15.4658 5.36278 15.39 5.29891 15.3261C5.23503 15.2622 5.1592 15.2115 5.07574 15.177C4.99228 15.1424 4.90283 15.1246 4.8125 15.1246C4.72217 15.1246 4.63272 15.1424 4.54926 15.177C4.4658 15.2115 4.38997 15.2622 4.32609 15.3261ZM15.8125 5.5C15.9028 5.50007 15.9923 5.48235 16.0757 5.44784C16.1592 5.41334 16.235 5.36273 16.2989 5.29891L17.6739 3.92391C17.8029 3.7949 17.8754 3.61994 17.8754 3.4375C17.8754 3.25506 17.8029 3.0801 17.6739 2.95109C17.5449 2.82209 17.3699 2.74962 17.1875 2.74962C17.0051 2.74962 16.8301 2.82209 16.7011 2.95109L15.3261 4.32609C15.2298 4.42224 15.1643 4.54479 15.1377 4.67823C15.1111 4.81166 15.1247 4.94998 15.1768 5.07567C15.2289 5.20136 15.3171 5.30877 15.4303 5.38431C15.5434 5.45984 15.6764 5.50011 15.8125 5.5ZM16.2989 15.3261C16.1699 15.1971 15.9949 15.1246 15.8125 15.1246C15.6301 15.1246 15.4551 15.1971 15.3261 15.3261C15.1971 15.4551 15.1246 15.6301 15.1246 15.8125C15.1246 15.9949 15.1971 16.1699 15.3261 16.2989L16.7011 17.6739C16.765 17.7378 16.8408 17.7885 16.9243 17.823C17.0077 17.8576 17.0972 17.8754 17.1875 17.8754C17.2778 17.8754 17.3673 17.8576 17.4507 17.823C17.5342 17.7885 17.61 17.7378 17.6739 17.6739C17.7378 17.61 17.7885 17.5342 17.823 17.4507C17.8576 17.3673 17.8754 17.2778 17.8754 17.1875C17.8754 17.0972 17.8576 17.0077 17.823 16.9243C17.7885 16.8408 17.7378 16.765 17.6739 16.7011L16.2989 15.3261ZM3.4375 10.3125C3.4375 10.1302 3.36507 9.9553 3.23614 9.82636C3.1072 9.69743 2.93234 9.625 2.75 9.625H0.6875C0.505164 9.625 0.330295 9.69743 0.201364 9.82636C0.0724328 9.9553 0 10.1302 0 10.3125C0 10.4948 0.0724328 10.6697 0.201364 10.7986C0.330295 10.9276 0.505164 11 0.6875 11H2.75C2.93234 11 3.1072 10.9276 3.23614 10.7986C3.36507 10.6697 3.4375 10.4948 3.4375 10.3125ZM10.3125 17.1875C10.1302 17.1875 9.9553 17.2599 9.82636 17.3889C9.69743 17.5178 9.625 17.6927 9.625 17.875V19.9375C9.625 20.1198 9.69743 20.2947 9.82636 20.4236C9.9553 20.5526 10.1302 20.625 10.3125 20.625C10.4948 20.625 10.6697 20.5526 10.7986 20.4236C10.9276 20.2947 11 20.1198 11 19.9375V17.875C11 17.6927 10.9276 17.5178 10.7986 17.3889C10.6697 17.2599 10.4948 17.1875 10.3125 17.1875ZM19.9375 9.625H17.875C17.6927 9.625 17.5178 9.69743 17.3889 9.82636C17.2599 9.9553 17.1875 10.1302 17.1875 10.3125C17.1875 10.4948 17.2599 10.6697 17.3889 10.7986C17.5178 10.9276 17.6927 11 17.875 11H19.9375C20.1198 11 20.2947 10.9276 20.4236 10.7986C20.5526 10.6697 20.625 10.4948 20.625 10.3125C20.625 10.1302 20.5526 9.9553 20.4236 9.82636C20.2947 9.69743 20.1198 9.625 19.9375 9.625Z" fill="white"/>
</svg>
