<svg width="22" height="22" viewBox="0 0 22 22" fill="none" xmlns="http://www.w3.org/2000/svg">
<path d="M20.0698 12.2229C19.9816 12.1345 19.8711 12.0718 19.7499 12.0415C19.6288 12.0112 19.5017 12.0145 19.3823 12.051C18.0714 12.4473 16.6775 12.4805 15.3492 12.1471C14.0209 11.8137 12.8079 11.1262 11.8396 10.1578C10.8712 9.18943 10.1836 7.97645 9.85025 6.64814C9.51686 5.31983 9.55008 3.92595 9.94639 2.61504C9.98317 2.49559 9.9867 2.36837 9.95658 2.24706C9.92646 2.12576 9.86385 2.01496 9.77547 1.92658C9.68709 1.83821 9.57629 1.77559 9.45499 1.74548C9.33369 1.71536 9.20647 1.71888 9.08702 1.75566C7.27462 2.31086 5.6835 3.42353 4.54006 4.93535C3.54011 6.26296 2.93016 7.84311 2.77875 9.49827C2.62733 11.1534 2.94045 12.818 3.68293 14.305C4.42541 15.792 5.56783 17.0425 6.98183 17.9161C8.39584 18.7896 10.0254 19.2515 11.6875 19.25C13.6265 19.2559 15.514 18.6255 17.0603 17.4556C18.5721 16.3122 19.6848 14.721 20.24 12.9086C20.2763 12.7896 20.2797 12.663 20.2497 12.5422C20.2198 12.4214 20.1576 12.3111 20.0698 12.2229ZM16.2336 16.3573C14.7774 17.4541 12.9741 17.988 11.1555 17.8606C9.33693 17.7333 7.62557 16.9533 6.33645 15.6643C5.04733 14.3753 4.26723 12.664 4.13974 10.8454C4.01226 9.02689 4.54597 7.22349 5.64264 5.76723C6.35713 4.82368 7.28084 4.05883 8.34108 3.53285C8.28068 3.95672 8.25024 4.38431 8.24999 4.81246C8.25249 7.18206 9.19492 9.4539 10.8705 11.1295C12.546 12.805 14.8179 13.7475 17.1875 13.75C17.6165 13.7498 18.045 13.7194 18.4697 13.6589C17.9432 14.7193 17.1777 15.643 16.2336 16.3573Z" fill="black"/>
</svg>
